<svg width="24" height="24" viewBox="0 0 24 24" fill="none" xmlns="http://www.w3.org/2000/svg">
<path fill-rule="evenodd" clip-rule="evenodd" d="M16.0268 17.0877C14.6766 18.2018 12.9457 18.871 11.0585 18.871C6.74411 18.871 3.24658 15.3734 3.24658 11.059C3.24658 6.7446 6.74411 3.24707 11.0585 3.24707C15.3729 3.24707 18.8705 6.7446 18.8705 11.059C18.8705 12.9461 18.2014 14.6769 17.0875 16.0271L20.5337 19.4733C20.8266 19.7662 20.8266 20.2411 20.5337 20.534C20.2408 20.8269 19.766 20.8269 19.4731 20.534L16.0268 17.0877ZM4.74658 11.059C4.74658 7.57302 7.57253 4.74707 11.0585 4.74707C14.5445 4.74707 17.3705 7.57302 17.3705 11.059C17.3705 12.7916 16.6724 14.3611 15.5422 15.5016C15.5352 15.5082 15.5283 15.5148 15.5214 15.5217C15.5146 15.5285 15.5079 15.5355 15.5014 15.5425C14.3608 16.6728 12.7912 17.371 11.0585 17.371C7.57253 17.371 4.74658 14.545 4.74658 11.059Z" fill="#00031A" fill-opacity="0.9"/>
</svg>
